<svg width="34" height="30" viewBox="0 0 34 30" fill="none" xmlns="http://www.w3.org/2000/svg">
    <path d="M11.6464 5.75V1.25C11.6464 0.951631 11.7565 0.665483 11.9525 0.454505C12.1484 0.243526 12.4142 0.125 12.6913 0.125C12.9685 0.125 13.2342 0.243526 13.4302 0.454505C13.6262 0.665483 13.7362 0.951631 13.7362 1.25V5.75C13.7362 6.04837 13.6262 6.33452 13.4302 6.5455C13.2342 6.75647 12.9685 6.875 12.6913 6.875C12.4142 6.875 12.1484 6.75647 11.9525 6.5455C11.7565 6.33452 11.6464 6.04837 11.6464 5.75ZM16.871 6.875C17.1481 6.875 17.4139 6.75647 17.6099 6.5455C17.8058 6.33452 17.9159 6.04837 17.9159 5.75V1.25C17.9159 0.951631 17.8058 0.665483 17.6099 0.454505C17.4139 0.243526 17.1481 0.125 16.871 0.125C16.5939 0.125 16.3281 0.243526 16.1321 0.454505C15.9362 0.665483 15.8261 0.951631 15.8261 1.25V5.75C15.8261 6.04837 15.9362 6.33452 16.1321 6.5455C16.3281 6.75647 16.5939 6.875 16.871 6.875ZM21.0507 6.875C21.3278 6.875 21.5936 6.75647 21.7895 6.5455C21.9855 6.33452 22.0956 6.04837 22.0956 5.75V1.25C22.0956 0.951631 21.9855 0.665483 21.7895 0.454505C21.5936 0.243526 21.3278 0.125 21.0507 0.125C20.7735 0.125 20.5077 0.243526 20.3118 0.454505C20.1158 0.665483 20.0057 0.951631 20.0057 1.25V5.75C20.0057 6.04837 20.1158 6.33452 20.3118 6.5455C20.5077 6.75647 20.7735 6.875 21.0507 6.875ZM33.1717 13.4L29.41 16.4375V24.875C29.4065 26.0673 28.9651 27.2098 28.182 28.0529C27.3989 28.896 26.3378 29.3713 25.2303 29.375H8.51167C7.40421 29.3713 6.3431 28.896 5.56001 28.0529C4.77692 27.2098 4.33545 26.0673 4.33201 24.875V16.4375L0.570314 13.4C0.348611 13.221 0.202042 12.9545 0.16285 12.6591C0.123658 12.3637 0.195054 12.0637 0.361331 11.825C0.527608 11.5863 0.775146 11.4285 1.04949 11.3863C1.32383 11.3441 1.60251 11.421 1.82421 11.6L4.33201 13.625V11.375C4.33201 10.7783 4.55219 10.206 4.94411 9.78401C5.33603 9.36205 5.86758 9.125 6.42184 9.125H27.3201C27.8744 9.125 28.406 9.36205 28.7979 9.78401C29.1898 10.206 29.41 10.7783 29.41 11.375V13.625L31.9178 11.6C32.1395 11.421 32.4181 11.3441 32.6925 11.3863C32.9668 11.4285 33.2144 11.5863 33.3806 11.825C33.5469 12.0637 33.6183 12.3637 33.5791 12.6591C33.5399 12.9545 33.3934 13.221 33.1717 13.4ZM27.3201 11.375H6.42184V24.875C6.42184 25.4717 6.64202 26.044 7.03394 26.466C7.42586 26.8879 7.95741 27.125 8.51167 27.125H25.2303C25.7846 27.125 26.3161 26.8879 26.708 26.466C27.1 26.044 27.3201 25.4717 27.3201 24.875V11.375Z"
          fill="#E17C78"/>
</svg>
